<svg version="1.1" id="Layer_1" xmlns="http://www.w3.org/2000/svg" xmlns:xlink="http://www.w3.org/1999/xlink" x="0px" y="0px"
	 width="100%" viewBox="0 0 512 512" enable-background="new 0 0 512 512" xml:space="preserve">
<path fill="#000000" opacity="1.000000" stroke="none" 
	d="
M285.000000,513.000000 
	C190.023056,513.000000 95.546112,513.000000 1.034582,513.000000 
	C1.034582,342.398041 1.034582,171.796051 1.034582,1.097036 
	C171.560287,1.097036 342.120667,1.097036 512.840515,1.097036 
	C512.840515,171.666550 512.840515,342.333252 512.840515,513.000000 
	C437.129364,513.000000 361.314667,513.000000 285.000000,513.000000 
M345.966797,320.986877 
	C350.132751,320.991333 354.302368,321.095337 358.462616,320.943573 
	C359.826996,320.893799 361.645660,320.602997 362.441132,319.702301 
	C367.833923,313.596008 373.008362,307.296875 378.884186,300.880493 
	C380.885406,298.650330 382.550751,295.912140 384.969269,294.313141 
	C388.315643,292.100677 392.176117,289.407013 395.908783,289.259766 
	C410.549866,288.682190 425.230133,288.843903 439.889893,289.088959 
	C449.072113,289.242401 456.134125,296.827667 454.965881,305.897186 
	C454.434265,310.024292 452.107056,314.429260 449.369781,317.675659 
	C437.021729,332.320587 424.175598,346.544647 411.686920,361.073303 
	C410.227417,362.771210 409.146942,365.405548 409.116089,367.622833 
	C408.897949,383.283600 409.072479,398.949493 408.931396,414.612061 
	C408.906921,417.327118 409.778412,418.633301 412.162842,419.919128 
	C420.662415,424.502716 424.789551,431.897552 424.988373,441.509338 
	C425.038666,443.940918 424.995911,446.374420 424.995911,448.803528 
	C428.048462,448.973328 430.456635,449.107269 432.784180,449.236725 
	C432.784180,454.674072 432.784180,459.620331 432.784180,465.147156 
	C429.740906,465.147156 426.891968,465.147156 423.681458,465.147156 
	C426.563629,474.092102 424.279510,481.629852 419.584808,488.652710 
	C427.032776,488.652710 433.954742,488.652710 441.135986,488.652710 
	C441.135986,486.018982 441.135986,483.733643 441.135986,480.981232 
	C454.473633,480.981232 467.543182,480.981232 480.738770,480.981232 
	C480.738770,366.126740 480.738770,251.746780 480.738770,137.291687 
	C448.752747,137.291687 417.028687,137.291687 384.849792,137.291687 
	C384.849792,182.651047 384.849792,227.720901 384.849792,273.158264 
	C381.914124,273.158264 379.433167,273.158264 376.058594,273.013336 
	C373.790039,273.013336 371.521484,273.013336 369.000305,273.013336 
	C369.000305,270.667267 369.000275,268.859100 369.000275,267.050934 
	C369.000275,224.061188 368.975616,181.071411 369.054932,138.081818 
	C369.060333,135.162811 368.514252,133.361374 365.647705,131.805054 
	C312.192810,102.782768 258.795410,73.654312 205.463440,44.406784 
	C202.125412,42.576195 199.749680,42.721729 196.474960,44.516495 
	C143.128616,73.753700 89.720146,102.877853 36.246937,131.882324 
	C33.307087,133.476929 32.954723,135.371063 32.956013,138.215881 
	C33.007271,251.022278 32.998756,363.828674 33.009670,476.635101 
	C33.009808,478.058929 33.160748,479.482758 33.226418,480.643555 
	C38.770214,480.643555 43.844051,480.643555 49.000359,480.643555 
	C49.000359,478.459534 49.000359,476.631378 49.000359,474.803253 
	C49.000359,368.828552 48.999943,262.853821 49.001038,156.879120 
	C49.001137,147.216766 51.158356,145.001633 60.582382,145.001450 
	C154.226700,144.999603 247.871033,144.999512 341.515350,145.001617 
	C350.709564,145.001831 352.997620,147.290115 352.998230,156.488235 
	C353.001404,204.310150 352.999664,252.132065 352.999664,299.953979 
	C352.999664,301.568634 352.999664,303.183289 352.999664,305.158539 
	C349.998413,305.158539 347.522858,305.158539 344.143219,305.020966 
	C341.872620,305.020966 339.602020,305.020966 336.865265,305.020966 
	C336.865265,288.736694 336.865265,273.001007 336.865265,257.332275 
	C245.999390,257.332275 155.612015,257.332275 65.359398,257.332275 
	C65.359398,332.053894 65.359398,406.443176 65.359398,480.781189 
	C70.665413,480.781189 75.610718,480.781189 80.999458,480.781189 
	C80.999458,478.783356 80.999458,476.996124 80.999458,475.208893 
	C80.999466,416.882324 80.997421,358.555756 81.001656,300.229187 
	C81.002296,291.366180 83.370232,289.003082 92.247299,289.001740 
	C127.243240,288.996399 162.239182,288.998077 197.235123,289.000549 
	C206.795471,289.001221 208.998993,291.195221 208.999374,300.722290 
	C209.001663,358.882202 209.000519,417.042145 209.000519,475.202057 
	C209.000519,476.993835 209.000519,478.785583 209.000519,481.032227 
	C211.835434,481.032227 214.240128,481.032227 216.822983,481.032227 
	C216.958130,483.888184 217.072067,486.296387 217.186050,488.705261 
	C224.431839,488.705261 231.295059,488.705261 237.916107,488.705261 
	C236.388794,484.873291 234.343338,481.330170 233.639954,477.538147 
	C232.909439,473.599945 233.477219,469.420898 233.477219,464.940491 
	C230.927155,464.940491 228.163864,464.940491 225.263687,464.940491 
	C225.263687,459.465912 225.263687,454.396057 225.263687,449.191254 
	C227.921173,449.037659 230.329056,448.898499 232.999481,448.744141 
	C232.999481,446.760925 232.999481,445.118927 232.999496,443.476929 
	C232.999756,427.145477 232.964996,410.813934 233.017456,394.482666 
	C233.038437,387.948761 235.952255,385.067993 242.494385,385.015106 
	C250.326294,384.951782 258.159119,384.999695 265.991547,384.999542 
	C270.919281,384.999451 275.847015,384.999512 280.999573,384.999512 
	C280.999573,366.704041 280.985596,349.058228 281.005981,331.412445 
	C281.014984,323.614014 283.659515,321.028107 291.564209,321.001709 
	C309.392029,320.942200 327.219879,320.894196 345.966797,320.986877 
M409.500000,121.002380 
	C424.998169,121.002380 440.496338,121.002380 457.035126,121.002380 
	C455.619446,119.987053 455.257751,119.665390 454.843781,119.439598 
	C407.727386,93.742111 360.616272,68.034897 313.451660,42.426201 
	C311.671936,41.459866 309.373901,41.069302 307.313751,41.057564 
	C289.162628,40.954170 271.010681,40.997616 252.858978,40.997612 
	C246.615356,40.997612 240.371735,40.997612 234.128113,40.997612 
	C235.453964,42.622608 236.978455,43.478050 238.512863,44.315304 
	C276.585602,65.089645 315.062439,85.167961 352.556519,106.938751 
	C370.297424,117.239952 387.980042,123.708168 409.500000,121.002380 
M158.500000,225.000824 
	C127.435349,225.000824 96.370689,225.000824 65.350983,225.000824 
	C65.350983,230.743866 65.350983,235.655838 65.350983,240.586578 
	C156.030396,240.586578 246.359009,240.586578 336.649170,240.586578 
	C336.649170,235.256317 336.649170,230.344330 336.649170,225.000824 
	C277.366730,225.000824 218.433365,225.000824 158.500000,225.000824 
M310.500000,208.999374 
	C319.255859,208.999374 328.011688,208.999374 336.755859,208.999374 
	C336.755859,203.345184 336.755859,198.410645 336.755859,193.271179 
	C246.151016,193.271179 155.789902,193.271179 65.332748,193.271179 
	C65.332748,198.598557 65.332748,203.648117 65.332748,208.999374 
	C146.942978,208.999374 228.221481,208.999374 310.500000,208.999374 
M326.474487,161.000534 
	C239.429596,161.000534 152.384720,161.000534 65.306000,161.000534 
	C65.306000,166.611557 65.306000,171.670105 65.306000,176.724640 
	C155.962326,176.724640 246.312943,176.724640 336.692017,176.724640 
	C336.692017,171.384399 336.692017,166.325912 336.692017,161.000534 
	C333.412292,161.000534 330.437500,161.000534 326.474487,161.000534 
M144.999481,328.500000 
	C144.999481,320.745331 144.999481,312.990631 144.999481,305.302002 
	C128.678223,305.302002 112.961937,305.302002 97.301880,305.302002 
	C97.301880,321.321503 97.301880,337.037781 97.301880,352.698273 
	C113.321251,352.698273 129.037521,352.698273 144.999481,352.698273 
	C144.999481,344.766144 144.999481,337.133087 144.999481,328.500000 
M117.500160,433.000488 
	C110.743355,433.000488 103.986549,433.000488 97.303535,433.000488 
	C97.303535,449.324860 97.303535,465.041168 97.303535,480.696594 
	C113.324608,480.696594 129.040909,480.696594 144.696716,480.696594 
	C144.696716,464.675659 144.696716,448.959351 144.696716,433.000488 
	C135.763824,433.000488 127.131973,433.000488 117.500160,433.000488 
M308.518250,384.999512 
	C320.598907,384.999512 332.679596,384.999512 344.697327,384.999512 
	C344.697327,368.677643 344.697327,352.960968 344.697327,337.303101 
	C328.676727,337.303101 312.960022,337.303101 297.303589,337.303101 
	C297.303589,353.324188 297.303589,369.040863 297.303589,384.999512 
	C300.911255,384.999512 304.218048,384.999512 308.518250,384.999512 
M97.000572,395.499878 
	C97.000572,402.592926 97.000572,409.685974 97.000572,416.614502 
	C113.408913,416.614502 129.133026,416.614502 144.747040,416.614502 
	C144.747040,400.623199 144.747040,385.018005 144.747040,369.297119 
	C128.770828,369.297119 113.048454,369.297119 97.000572,369.297119 
	C97.000572,377.893951 97.000572,386.196960 97.000572,395.499878 
M296.999512,440.452271 
	C296.999512,427.375000 296.999512,414.297729 296.999512,401.313416 
	C280.657227,401.313416 264.939667,401.313416 249.314880,401.313416 
	C249.314880,417.345764 249.314880,433.063324 249.314880,448.683533 
	C265.348572,448.683533 281.066010,448.683533 296.999512,448.683533 
	C296.999512,446.057587 296.999512,443.745972 296.999512,440.452271 
M161.000534,438.612610 
	C161.000534,452.672241 161.000534,466.731873 161.000534,480.659729 
	C172.046539,480.659729 182.427490,480.659729 192.663940,480.659729 
	C192.663940,464.613068 192.663940,448.908142 192.663940,433.168213 
	C182.066818,433.168213 171.806107,433.168213 161.220535,433.168213 
	C161.142395,434.756561 161.071487,436.198120 161.000534,438.612610 
M374.507812,337.000488 
	C370.085785,337.000488 365.663757,337.000488 361.304962,337.000488 
	C361.304962,353.327301 361.304962,369.029877 361.304962,384.688049 
	C371.991150,384.688049 382.370026,384.688049 392.694763,384.688049 
	C392.694763,368.672119 392.694763,352.969543 392.694763,337.000488 
	C386.763611,337.000488 381.133698,337.000488 374.507812,337.000488 
M313.000488,441.432739 
	C313.000488,443.862366 313.000488,446.291992 313.000488,448.695923 
	C323.973724,448.695923 334.352997,448.695923 344.701111,448.695923 
	C344.701111,432.687103 344.701111,416.983643 344.701111,401.306885 
	C334.020538,401.306885 323.641144,401.306885 313.000488,401.306885 
	C313.000488,414.558044 313.000488,427.504547 313.000488,441.432739 
M181.480652,369.000549 
	C174.731201,369.000549 167.981735,369.000549 161.402588,369.000549 
	C161.402588,385.429474 161.402588,401.132019 161.402588,416.724945 
	C172.063263,416.724945 182.320023,416.724945 192.684601,416.724945 
	C192.684601,400.748016 192.684601,385.047394 192.684601,369.000549 
	C189.076950,369.000549 185.775101,369.000549 181.480652,369.000549 
M161.000519,328.500000 
	C161.000519,336.580566 161.000519,344.661102 161.000519,352.688477 
	C171.990707,352.688477 182.369324,352.688477 192.695618,352.688477 
	C192.695618,336.673340 192.695618,320.971069 192.695618,305.311096 
	C182.010269,305.311096 171.631592,305.311096 161.000519,305.311096 
	C161.000519,312.912964 161.000519,320.206512 161.000519,328.500000 
M364.681458,449.000397 
	C368.634003,449.000397 372.586548,449.000397 376.783142,449.000397 
	C376.878082,447.736786 377.033325,446.937653 376.982849,446.151703 
	C376.210419,434.120117 380.094940,424.602081 391.393463,418.923065 
	C392.178802,418.528320 392.894257,417.166595 392.922760,416.232574 
	C393.073364,411.294800 392.993408,406.349976 392.993408,401.331238 
	C382.064941,401.331238 371.686890,401.331238 361.002167,401.331238 
	C361.002167,416.456299 360.949829,431.251984 361.119110,446.045074 
	C361.130493,447.038879 362.817383,448.013489 364.681458,449.000397 
M437.121094,307.551392 
	C437.581268,306.819000 438.041443,306.086609 438.726410,304.996490 
	C425.187897,304.996490 412.232666,304.954803 399.278625,305.059692 
	C397.953033,305.070374 396.231140,305.585693 395.381165,306.503784 
	C391.254089,310.961700 387.361603,315.636810 383.465668,320.142853 
	C383.757324,320.610748 383.838837,320.859222 383.923370,320.860229 
	C388.903900,320.921173 393.884705,320.960480 398.865479,321.004517 
	C406.269928,321.070007 408.943573,323.786865 408.993378,331.311676 
	C409.009277,333.711639 408.995880,336.111816 408.995880,339.716675 
	C418.797180,328.516998 427.726959,318.313141 437.121094,307.551392 
M370.465271,489.009338 
	C374.264221,489.009338 378.063171,489.009338 382.888641,489.009338 
	C376.736053,481.574280 376.065643,473.715881 377.900665,465.394897 
	C366.519501,465.394897 355.356781,465.394897 343.965546,465.394897 
	C346.190796,473.984161 344.844116,481.575195 339.362610,489.009338 
	C349.921295,489.009338 359.698761,489.009338 370.465271,489.009338 
M289.492737,489.004395 
	C293.722778,489.004395 297.952820,489.004395 303.061005,489.004395 
	C297.102600,481.416809 295.754028,473.700043 298.124390,465.336792 
	C291.820648,465.336792 285.948303,465.336792 279.745636,465.336792 
	C282.543488,474.061279 280.300171,481.621613 275.329865,489.004395 
	C280.191071,489.004395 284.349762,489.004395 289.492737,489.004395 
M408.981598,447.306641 
	C408.971985,444.982239 409.146210,442.639221 408.913239,440.337402 
	C408.473633,435.993134 405.024811,432.855347 400.897675,433.053345 
	C396.497894,433.264435 393.730774,435.731934 393.139343,440.044922 
	C392.747314,442.903900 393.065033,445.860199 393.065033,449.378876 
	C398.773865,448.963654 403.809448,448.597382 408.981598,447.306641 
M250.586426,468.238159 
	C247.959351,473.821777 249.188385,478.286743 253.915939,480.333984 
	C258.104401,482.147766 262.943176,480.067261 264.493683,475.683746 
	C265.749176,472.134247 264.814453,468.995026 261.882355,466.771851 
	C258.157867,463.947906 254.448975,464.429993 250.586426,468.238159 
M319.813599,465.066376 
	C314.201843,467.226349 311.851990,471.078827 313.421234,475.546356 
	C314.754425,479.341797 318.710999,481.755524 322.506165,480.836212 
	C326.509064,479.866547 328.836578,477.238678 328.961121,473.042572 
	C329.093079,468.597473 326.188812,465.893921 319.813599,465.066376 
M408.929413,471.814667 
	C406.757965,466.193359 402.918671,463.851532 398.447632,465.421234 
	C394.654480,466.752960 392.235535,470.712158 393.155853,474.506378 
	C394.125671,478.504761 396.745972,480.843109 400.947571,480.961304 
	C405.390472,481.086334 408.094757,478.184357 408.929413,471.814667 
z"/>
<path fill="#E6E6E6" opacity="1.000000" stroke="none" 
	d="
M378.253357,301.060089 
	C373.008362,307.296875 367.833923,313.596008 362.441132,319.702301 
	C361.645660,320.602997 359.826996,320.893799 358.462616,320.943573 
	C354.302368,321.095337 350.132751,320.991333 345.491577,320.458191 
	C345.026672,315.005859 345.036987,310.082214 345.047333,305.158539 
	C347.522858,305.158539 349.998413,305.158539 352.999664,305.158539 
	C352.999664,303.183289 352.999664,301.568634 352.999664,299.953979 
	C352.999664,252.132065 353.001404,204.310150 352.998230,156.488235 
	C352.997620,147.290115 350.709564,145.001831 341.515350,145.001617 
	C247.871033,144.999512 154.226700,144.999603 60.582382,145.001450 
	C51.158356,145.001633 49.001137,147.216766 49.001038,156.879120 
	C48.999943,262.853821 49.000359,368.828552 49.000359,474.803253 
	C49.000359,476.631378 49.000359,478.459534 49.000359,480.643555 
	C43.844051,480.643555 38.770214,480.643555 33.226418,480.643555 
	C33.160748,479.482758 33.009808,478.058929 33.009670,476.635101 
	C32.998756,363.828674 33.007271,251.022278 32.956013,138.215881 
	C32.954723,135.371063 33.307087,133.476929 36.246937,131.882324 
	C89.720146,102.877853 143.128616,73.753700 196.474960,44.516495 
	C199.749680,42.721729 202.125412,42.576195 205.463440,44.406784 
	C258.795410,73.654312 312.192810,102.782768 365.647705,131.805054 
	C368.514252,133.361374 369.060333,135.162811 369.054932,138.081818 
	C368.975616,181.071411 369.000275,224.061188 369.000275,267.050934 
	C369.000275,268.859100 369.000305,270.667267 369.000305,273.013336 
	C371.521484,273.013336 373.790039,273.013336 376.521362,273.544128 
	C376.990143,281.399445 376.920898,288.725403 377.059052,296.047455 
	C377.090668,297.725250 377.836304,299.389557 378.253357,301.060089 
z"/>
<path fill="#B3B3B3" opacity="1.000000" stroke="none" 
	d="
M378.568787,300.970276 
	C377.836304,299.389557 377.090668,297.725250 377.059052,296.047455 
	C376.920898,288.725403 376.990143,281.399445 376.968140,273.616577 
	C379.433167,273.158264 381.914124,273.158264 384.849792,273.158264 
	C384.849792,227.720901 384.849792,182.651047 384.849792,137.291687 
	C417.028687,137.291687 448.752747,137.291687 480.738770,137.291687 
	C480.738770,251.746780 480.738770,366.126740 480.738770,480.981232 
	C467.543182,480.981232 454.473633,480.981232 441.135986,480.981232 
	C441.135986,483.733643 441.135986,486.018982 441.135986,488.652710 
	C433.954742,488.652710 427.032776,488.652710 419.584808,488.652710 
	C424.279510,481.629852 426.563629,474.092102 423.681458,465.147156 
	C426.891968,465.147156 429.740906,465.147156 432.784180,465.147156 
	C432.784180,459.620331 432.784180,454.674072 432.784180,449.236725 
	C430.456635,449.107269 428.048462,448.973328 424.995911,448.803528 
	C424.995911,446.374420 425.038666,443.940918 424.988373,441.509338 
	C424.789551,431.897552 420.662415,424.502716 412.162842,419.919128 
	C409.778412,418.633301 408.906921,417.327118 408.931396,414.612061 
	C409.072479,398.949493 408.897949,383.283600 409.116089,367.622833 
	C409.146942,365.405548 410.227417,362.771210 411.686920,361.073303 
	C424.175598,346.544647 437.021729,332.320587 449.369781,317.675659 
	C452.107056,314.429260 454.434265,310.024292 454.965881,305.897186 
	C456.134125,296.827667 449.072113,289.242401 439.889893,289.088959 
	C425.230133,288.843903 410.549866,288.682190 395.908783,289.259766 
	C392.176117,289.407013 388.315643,292.100677 384.969269,294.313141 
	C382.550751,295.912140 380.885406,298.650330 378.568787,300.970276 
z"/>
<path fill="#B3B3B3" opacity="1.000000" stroke="none" 
	d="
M344.595276,305.089752 
	C345.036987,310.082214 345.026672,315.005859 345.032043,320.385529 
	C327.219879,320.894196 309.392029,320.942200 291.564209,321.001709 
	C283.659515,321.028107 281.014984,323.614014 281.005981,331.412445 
	C280.985596,349.058228 280.999573,366.704041 280.999573,384.999512 
	C275.847015,384.999512 270.919281,384.999451 265.991547,384.999542 
	C258.159119,384.999695 250.326294,384.951782 242.494385,385.015106 
	C235.952255,385.067993 233.038437,387.948761 233.017456,394.482666 
	C232.964996,410.813934 232.999756,427.145477 232.999496,443.476929 
	C232.999481,445.118927 232.999481,446.760925 232.999481,448.744141 
	C230.329056,448.898499 227.921173,449.037659 225.263687,449.191254 
	C225.263687,454.396057 225.263687,459.465912 225.263687,464.940491 
	C228.163864,464.940491 230.927155,464.940491 233.477219,464.940491 
	C233.477219,469.420898 232.909439,473.599945 233.639954,477.538147 
	C234.343338,481.330170 236.388794,484.873291 237.916107,488.705261 
	C231.295059,488.705261 224.431839,488.705261 217.186050,488.705261 
	C217.072067,486.296387 216.958130,483.888184 216.822983,481.032227 
	C214.240128,481.032227 211.835434,481.032227 209.000519,481.032227 
	C209.000519,478.785583 209.000519,476.993835 209.000519,475.202057 
	C209.000519,417.042145 209.001663,358.882202 208.999374,300.722290 
	C208.998993,291.195221 206.795471,289.001221 197.235123,289.000549 
	C162.239182,288.998077 127.243240,288.996399 92.247299,289.001740 
	C83.370232,289.003082 81.002296,291.366180 81.001656,300.229187 
	C80.997421,358.555756 80.999466,416.882324 80.999458,475.208893 
	C80.999458,476.996124 80.999458,478.783356 80.999458,480.781189 
	C75.610718,480.781189 70.665413,480.781189 65.359398,480.781189 
	C65.359398,406.443176 65.359398,332.053894 65.359398,257.332275 
	C155.612015,257.332275 245.999390,257.332275 336.865265,257.332275 
	C336.865265,273.001007 336.865265,288.736694 336.865265,305.020966 
	C339.602020,305.020966 341.872620,305.020966 344.595276,305.089752 
z"/>
<path fill="#CBCBCB" opacity="1.000000" stroke="none" 
	d="
M409.000000,121.002380 
	C387.980042,123.708168 370.297424,117.239952 352.556519,106.938751 
	C315.062439,85.167961 276.585602,65.089645 238.512863,44.315304 
	C236.978455,43.478050 235.453964,42.622608 234.128113,40.997612 
	C240.371735,40.997612 246.615356,40.997612 252.858978,40.997612 
	C271.010681,40.997616 289.162628,40.954170 307.313751,41.057564 
	C309.373901,41.069302 311.671936,41.459866 313.451660,42.426201 
	C360.616272,68.034897 407.727386,93.742111 454.843781,119.439598 
	C455.257751,119.665390 455.619446,119.987053 457.035126,121.002380 
	C440.496338,121.002380 424.998169,121.002380 409.000000,121.002380 
z"/>
<path fill="#104F91" opacity="1.000000" stroke="none" 
	d="
M159.000000,225.000824 
	C218.433365,225.000824 277.366730,225.000824 336.649170,225.000824 
	C336.649170,230.344330 336.649170,235.256317 336.649170,240.586578 
	C246.359009,240.586578 156.030396,240.586578 65.350983,240.586578 
	C65.350983,235.655838 65.350983,230.743866 65.350983,225.000824 
	C96.370689,225.000824 127.435349,225.000824 159.000000,225.000824 
z"/>
<path fill="#2B7CD4" opacity="1.000000" stroke="none" 
	d="
M310.000000,208.999374 
	C228.221481,208.999374 146.942978,208.999374 65.332748,208.999374 
	C65.332748,203.648117 65.332748,198.598557 65.332748,193.271179 
	C155.789902,193.271179 246.151016,193.271179 336.755859,193.271179 
	C336.755859,198.410645 336.755859,203.345184 336.755859,208.999374 
	C328.011688,208.999374 319.255859,208.999374 310.000000,208.999374 
z"/>
<path fill="#3EA7FF" opacity="1.000000" stroke="none" 
	d="
M326.968597,161.000534 
	C330.437500,161.000534 333.412292,161.000534 336.692017,161.000534 
	C336.692017,166.325912 336.692017,171.384399 336.692017,176.724640 
	C246.312943,176.724640 155.962326,176.724640 65.306000,176.724640 
	C65.306000,171.670105 65.306000,166.611557 65.306000,161.000534 
	C152.384720,161.000534 239.429596,161.000534 326.968597,161.000534 
z"/>
<path fill="#FFCC77" opacity="1.000000" stroke="none" 
	d="
M144.999481,329.000000 
	C144.999481,337.133087 144.999481,344.766144 144.999481,352.698273 
	C129.037521,352.698273 113.321251,352.698273 97.301880,352.698273 
	C97.301880,337.037781 97.301880,321.321503 97.301880,305.302002 
	C112.961937,305.302002 128.678223,305.302002 144.999481,305.302002 
	C144.999481,312.990631 144.999481,320.745331 144.999481,329.000000 
z"/>
<path fill="#FFCC77" opacity="1.000000" stroke="none" 
	d="
M118.000137,433.000488 
	C127.131973,433.000488 135.763824,433.000488 144.696716,433.000488 
	C144.696716,448.959351 144.696716,464.675659 144.696716,480.696594 
	C129.040909,480.696594 113.324608,480.696594 97.303535,480.696594 
	C97.303535,465.041168 97.303535,449.324860 97.303535,433.000488 
	C103.986549,433.000488 110.743355,433.000488 118.000137,433.000488 
z"/>
<path fill="#FFCC77" opacity="1.000000" stroke="none" 
	d="
M308.021545,384.999512 
	C304.218048,384.999512 300.911255,384.999512 297.303589,384.999512 
	C297.303589,369.040863 297.303589,353.324188 297.303589,337.303101 
	C312.960022,337.303101 328.676727,337.303101 344.697327,337.303101 
	C344.697327,352.960968 344.697327,368.677643 344.697327,384.999512 
	C332.679596,384.999512 320.598907,384.999512 308.021545,384.999512 
z"/>
<path fill="#FF6F35" opacity="1.000000" stroke="none" 
	d="
M97.000572,394.999939 
	C97.000572,386.196960 97.000572,377.893951 97.000572,369.297119 
	C113.048454,369.297119 128.770828,369.297119 144.747040,369.297119 
	C144.747040,385.018005 144.747040,400.623199 144.747040,416.614502 
	C129.133026,416.614502 113.408913,416.614502 97.000572,416.614502 
	C97.000572,409.685974 97.000572,402.592926 97.000572,394.999939 
z"/>
<path fill="#FFCC77" opacity="1.000000" stroke="none" 
	d="
M296.999512,440.943329 
	C296.999512,443.745972 296.999512,446.057587 296.999512,448.683533 
	C281.066010,448.683533 265.348572,448.683533 249.314880,448.683533 
	C249.314880,433.063324 249.314880,417.345764 249.314880,401.313416 
	C264.939667,401.313416 280.657227,401.313416 296.999512,401.313416 
	C296.999512,414.297729 296.999512,427.375000 296.999512,440.943329 
z"/>
<path fill="#FCB73F" opacity="1.000000" stroke="none" 
	d="
M161.000549,438.126129 
	C161.071487,436.198120 161.142395,434.756561 161.220535,433.168213 
	C171.806107,433.168213 182.066818,433.168213 192.663940,433.168213 
	C192.663940,448.908142 192.663940,464.613068 192.663940,480.659729 
	C182.427490,480.659729 172.046539,480.659729 161.000534,480.659729 
	C161.000534,466.731873 161.000534,452.672241 161.000549,438.126129 
z"/>
<path fill="#FCB73F" opacity="1.000000" stroke="none" 
	d="
M375.005798,337.000488 
	C381.133698,337.000488 386.763611,337.000488 392.694763,337.000488 
	C392.694763,352.969543 392.694763,368.672119 392.694763,384.688049 
	C382.370026,384.688049 371.991150,384.688049 361.304962,384.688049 
	C361.304962,369.029877 361.304962,353.327301 361.304962,337.000488 
	C365.663757,337.000488 370.085785,337.000488 375.005798,337.000488 
z"/>
<path fill="#FCB73F" opacity="1.000000" stroke="none" 
	d="
M313.000488,440.941895 
	C313.000488,427.504547 313.000488,414.558044 313.000488,401.306885 
	C323.641144,401.306885 334.020538,401.306885 344.701111,401.306885 
	C344.701111,416.983643 344.701111,432.687103 344.701111,448.695923 
	C334.352997,448.695923 323.973724,448.695923 313.000488,448.695923 
	C313.000488,446.291992 313.000488,443.862366 313.000488,440.941895 
z"/>
<path fill="#E05E1D" opacity="1.000000" stroke="none" 
	d="
M181.976959,369.000549 
	C185.775101,369.000549 189.076950,369.000549 192.684601,369.000549 
	C192.684601,385.047394 192.684601,400.748016 192.684601,416.724945 
	C182.320023,416.724945 172.063263,416.724945 161.402588,416.724945 
	C161.402588,401.132019 161.402588,385.429474 161.402588,369.000549 
	C167.981735,369.000549 174.731201,369.000549 181.976959,369.000549 
z"/>
<path fill="#FCB73F" opacity="1.000000" stroke="none" 
	d="
M161.000519,328.000000 
	C161.000519,320.206512 161.000519,312.912964 161.000519,305.311096 
	C171.631592,305.311096 182.010269,305.311096 192.695618,305.311096 
	C192.695618,320.971069 192.695618,336.673340 192.695618,352.688477 
	C182.369324,352.688477 171.990707,352.688477 161.000519,352.688477 
	C161.000519,344.661102 161.000519,336.580566 161.000519,328.000000 
z"/>
<path fill="#DF5E1D" opacity="1.000000" stroke="none" 
	d="
M364.203217,448.998718 
	C362.817383,448.013489 361.130493,447.038879 361.119110,446.045074 
	C360.949829,431.251984 361.002167,416.456299 361.002167,401.331238 
	C371.686890,401.331238 382.064941,401.331238 392.993408,401.331238 
	C392.993408,406.349976 393.073364,411.294800 392.922760,416.232574 
	C392.894257,417.166595 392.178802,418.528320 391.393463,418.923065 
	C380.094940,424.602081 376.210419,434.120117 376.982849,446.151703 
	C377.033325,446.937653 376.878082,447.736786 376.783142,449.000397 
	C372.586548,449.000397 368.634003,449.000397 364.203217,448.998718 
z"/>
<path fill="#B1B1B1" opacity="1.000000" stroke="none" 
	d="
M436.888916,307.830322 
	C427.726959,318.313141 418.797180,328.516998 408.995880,339.716675 
	C408.995880,336.111816 409.009277,333.711639 408.993378,331.311676 
	C408.943573,323.786865 406.269928,321.070007 398.865479,321.004517 
	C393.884705,320.960480 388.903900,320.921173 383.923370,320.860229 
	C383.838837,320.859222 383.757324,320.610748 383.465668,320.142853 
	C387.361603,315.636810 391.254089,310.961700 395.381165,306.503784 
	C396.231140,305.585693 397.953033,305.070374 399.278625,305.059692 
	C412.232666,304.954803 425.187897,304.996490 438.726410,304.996490 
	C438.041443,306.086609 437.581268,306.819000 436.888916,307.830322 
z"/>
<path fill="#E1E1E1" opacity="1.000000" stroke="none" 
	d="
M369.970764,489.009338 
	C359.698761,489.009338 349.921295,489.009338 339.362610,489.009338 
	C344.844116,481.575195 346.190796,473.984161 343.965546,465.394897 
	C355.356781,465.394897 366.519501,465.394897 377.900665,465.394897 
	C376.065643,473.715881 376.736053,481.574280 382.888641,489.009338 
	C378.063171,489.009338 374.264221,489.009338 369.970764,489.009338 
z"/>
<path fill="#B1B1B1" opacity="1.000000" stroke="none" 
	d="
M289.000580,489.004395 
	C284.349762,489.004395 280.191071,489.004395 275.329865,489.004395 
	C280.300171,481.621613 282.543488,474.061279 279.745636,465.336792 
	C285.948303,465.336792 291.820648,465.336792 298.124390,465.336792 
	C295.754028,473.700043 297.102600,481.416809 303.061005,489.004395 
	C297.952820,489.004395 293.722778,489.004395 289.000580,489.004395 
z"/>
<path fill="#2A79D0" opacity="1.000000" stroke="none" 
	d="
M408.913330,447.768860 
	C403.809448,448.597382 398.773865,448.963654 393.065033,449.378876 
	C393.065033,445.860199 392.747314,442.903900 393.139343,440.044922 
	C393.730774,435.731934 396.497894,433.264435 400.897675,433.053345 
	C405.024811,432.855347 408.473633,435.993134 408.913239,440.337402 
	C409.146210,442.639221 408.971985,444.982239 408.913330,447.768860 
z"/>
<path fill="#7A7A7A" opacity="1.000000" stroke="none" 
	d="
M250.832153,467.934265 
	C254.448975,464.429993 258.157867,463.947906 261.882355,466.771851 
	C264.814453,468.995026 265.749176,472.134247 264.493683,475.683746 
	C262.943176,480.067261 258.104401,482.147766 253.915939,480.333984 
	C249.188385,478.286743 247.959351,473.821777 250.832153,467.934265 
z"/>
<path fill="#7A7A7A" opacity="1.000000" stroke="none" 
	d="
M320.210754,465.038330 
	C326.188812,465.893921 329.093079,468.597473 328.961121,473.042572 
	C328.836578,477.238678 326.509064,479.866547 322.506165,480.836212 
	C318.710999,481.755524 314.754425,479.341797 313.421234,475.546356 
	C311.851990,471.078827 314.201843,467.226349 320.210754,465.038330 
z"/>
<path fill="#7A7A7A" opacity="1.000000" stroke="none" 
	d="
M408.958130,472.211487 
	C408.094757,478.184357 405.390472,481.086334 400.947571,480.961304 
	C396.745972,480.843109 394.125671,478.504761 393.155853,474.506378 
	C392.235535,470.712158 394.654480,466.752960 398.447632,465.421234 
	C402.918671,463.851532 406.757965,466.193359 408.958130,472.211487 
z"/>
</svg>